<svg width="76" height="76" viewBox="0 0 76 76" fill="none" xmlns="http://www.w3.org/2000/svg">
<rect x="3" y="3" width="70" height="70" rx="3" fill="#11191F"/>
<path d="M36.2132 60.1831H32.516C32.0056 60.1831 31.5916 59.769 31.5916 59.2587C31.5916 58.7487 32.0056 58.3346 32.516 58.3346H36.2132C36.7236 58.3346 37.1376 57.9205 37.1376 57.4102V18.5898C37.1373 18.0795 36.7233 17.6654 36.2132 17.6654H32.516C32.0056 17.6654 31.5916 17.2513 31.5916 16.7413C31.5916 16.231 32.0056 15.8169 32.516 15.8169H36.2132C37.7421 15.8169 38.9861 17.061 38.9861 18.5898V57.4102C38.9861 58.939 37.7421 60.1831 36.2132 60.1831Z" fill="white"/>
<path d="M43.6073 60.1831H39.91C38.3812 60.1831 37.1372 58.939 37.1372 57.4102V18.5898C37.1372 17.061 38.3812 15.8169 39.91 15.8169H43.6073C44.1177 15.8169 44.5317 16.231 44.5317 16.7413C44.5317 17.2513 44.1177 17.6654 43.6073 17.6654H39.91C39.3997 17.6654 38.9856 18.0795 38.9856 18.5898V57.4102C38.9856 57.9205 39.3997 58.3346 39.91 58.3346H43.6073C44.1177 58.3346 44.5317 58.7487 44.5317 59.259C44.5317 59.769 44.1177 60.1831 43.6073 60.1831Z" fill="white"/>
</svg>
