<svg width="299" height="79" viewBox="0 0 299 79" fill="none" xmlns="http://www.w3.org/2000/svg">
<rect width="299" height="79" rx="3" fill="#D9D9D9"/>
<rect x="224" y="4" width="70" height="70" rx="3" fill="#11191F"/>
<path d="M257.213 61.1831H253.516C253.006 61.1831 252.592 60.769 252.592 60.2587C252.592 59.7487 253.006 59.3346 253.516 59.3346H257.213C257.724 59.3346 258.138 58.9205 258.138 58.4102V19.5898C258.137 19.0795 257.723 18.6654 257.213 18.6654H253.516C253.006 18.6654 252.592 18.2513 252.592 17.7413C252.592 17.231 253.006 16.8169 253.516 16.8169H257.213C258.742 16.8169 259.986 18.061 259.986 19.5898V58.4102C259.986 59.939 258.742 61.1831 257.213 61.1831Z" fill="white"/>
<path d="M264.607 61.1831H260.91C259.381 61.1831 258.137 59.939 258.137 58.4102V19.5898C258.137 18.061 259.381 16.8169 260.91 16.8169H264.607C265.118 16.8169 265.532 17.231 265.532 17.7413C265.532 18.2513 265.118 18.6654 264.607 18.6654H260.91C260.4 18.6654 259.986 19.0795 259.986 19.5898V58.4102C259.986 58.9205 260.4 59.3346 260.91 59.3346H264.607C265.118 59.3346 265.532 59.7487 265.532 60.259C265.532 60.769 265.118 61.1831 264.607 61.1831Z" fill="white"/>
<path d="M27.7521 57V20.6364H42.9155C45.638 20.6364 47.9167 21.0211 49.7514 21.7905C51.598 22.5599 52.983 23.6371 53.9062 25.022C54.8414 26.407 55.3089 28.0109 55.3089 29.8338C55.3089 31.2188 55.0189 32.4557 54.4389 33.5447C53.8589 34.6219 53.0599 35.5156 52.0419 36.2259C51.0239 36.9361 49.8461 37.4332 48.5085 37.7173V38.0724C49.9763 38.1435 51.3317 38.54 52.5746 39.2621C53.8293 39.9841 54.8355 40.9903 55.593 42.2805C56.3506 43.5589 56.7294 45.0741 56.7294 46.826C56.7294 48.7791 56.2322 50.5251 55.2379 52.0639C54.2436 53.5909 52.8054 54.7983 50.9233 55.6861C49.0412 56.562 46.7566 57 44.0696 57H27.7521ZM36.5412 49.9155H41.9744C43.8802 49.9155 45.2829 49.5545 46.1825 48.8324C47.094 48.1103 47.5497 47.1042 47.5497 45.8139C47.5497 44.8788 47.3307 44.0739 46.8928 43.3991C46.4548 42.7126 45.8333 42.1858 45.0284 41.8189C44.2235 41.4401 43.2588 41.2507 42.1342 41.2507H36.5412V49.9155ZM36.5412 35.5866H41.4062C42.3651 35.5866 43.2173 35.4268 43.9631 35.1072C44.7088 34.7876 45.2888 34.326 45.7031 33.7223C46.1293 33.1186 46.3423 32.3906 46.3423 31.5384C46.3423 30.3191 45.9103 29.3603 45.0462 28.6619C44.1821 27.9635 43.0161 27.6143 41.5483 27.6143H36.5412V35.5866ZM60.9553 57V20.6364H69.7443V49.8622H84.8722V57H60.9553ZM97.7761 57H88.3301L100.599 20.6364H112.3L124.569 57H115.123L106.583 29.7983H106.299L97.7761 57ZM96.5154 42.6889H116.26V49.3651H96.5154V42.6889ZM159.433 20.6364V57H151.975L137.504 36.0128H137.274V57H128.485V20.6364H136.048L150.36 41.5881H150.661V20.6364H159.433ZM164.959 57V20.6364H173.748V36.0128H174.228L186.248 20.6364H196.6L183.709 36.8651L196.831 57H186.319L177.264 42.7067L173.748 47.1456V57H164.959Z" fill="#11191F"/>
</svg>
